<?xml version="1.0" encoding="UTF-8"?>
<svg xmlns="http://www.w3.org/2000/svg" xmlns:xlink="http://www.w3.org/1999/xlink" width="50px" height="50px" viewBox="0 0 50 50" version="1.1">
<g id="surface1">
<path style=" stroke:none;fill-rule:nonzero;fill:rgb(100%,83.921569%,0%);fill-opacity:1;" d="M 6.25 43.75 L 6.25 6.25 L 43.75 6.25 L 43.75 43.75 Z M 6.25 43.75 "/>
<path style=" stroke:none;fill-rule:nonzero;fill:rgb(0%,0%,0.392157%);fill-opacity:1;" d="M 30.769531 34.320312 C 31.488281 35.492188 32.273438 36.613281 33.933594 36.613281 C 35.324219 36.613281 36.058594 35.917969 36.058594 34.960938 C 36.058594 33.816406 35.300781 33.40625 33.769531 32.738281 L 32.925781 32.382812 C 30.5 31.351562 28.886719 30.0625 28.886719 27.339844 C 28.886719 24.828125 30.808594 22.917969 33.8125 22.917969 C 35.949219 22.917969 37.488281 23.660156 38.597656 25.597656 L 35.976562 27.273438 C 35.402344 26.242188 34.777344 25.835938 33.8125 25.835938 C 32.828125 25.835938 32.203125 26.460938 32.203125 27.273438 C 32.203125 28.277344 32.828125 28.683594 34.269531 29.304688 L 35.113281 29.664062 C 37.972656 30.878906 39.582031 32.125 39.582031 34.917969 C 39.582031 37.933594 37.203125 39.582031 34.011719 39.582031 C 30.886719 39.582031 29.113281 38.015625 28.125 36.074219 Z M 18.699219 34.40625 C 19.226562 35.347656 20.027344 36.074219 21.179688 36.074219 C 22.28125 36.074219 22.917969 35.640625 22.917969 33.945312 L 22.917969 22.917969 L 26.386719 22.917969 L 26.386719 34.480469 C 26.386719 37.988281 24.355469 39.582031 21.382812 39.582031 C 18.699219 39.582031 16.761719 37.765625 15.972656 36.074219 Z M 18.699219 34.40625 "/>
</g>
</svg>
