<?xml version="1.0" encoding="UTF-8"?>
<svg xmlns="http://www.w3.org/2000/svg" xmlns:xlink="http://www.w3.org/1999/xlink" width="50px" height="50px" viewBox="0 0 50 50" version="1.1">
<g id="surface1">
<path style=" stroke:none;fill-rule:nonzero;fill:rgb(90.196078%,31.764706%,0%);fill-opacity:1;" d="M 42.707031 5.207031 L 7.292969 5.207031 L 10.417969 40.625 L 25 44.792969 L 39.582031 40.625 Z M 42.707031 5.207031 "/>
<path style=" stroke:none;fill-rule:nonzero;fill:rgb(100%,42.745098%,0%);fill-opacity:1;" d="M 25 8.332031 L 25 41.5625 L 36.667969 38.230469 L 39.269531 8.332031 Z M 25 8.332031 "/>
<path style=" stroke:none;fill-rule:nonzero;fill:rgb(100%,100%,100%);fill-opacity:1;" d="M 25 26.042969 L 25 21.875 L 33.957031 21.875 L 33.230469 33.855469 L 25 36.5625 L 25 32.1875 L 29.269531 30.730469 L 29.582031 26.042969 Z M 34.269531 17.707031 L 34.582031 13.542969 L 25 13.542969 L 25 17.707031 Z M 34.269531 17.707031 "/>
<path style=" stroke:none;fill-rule:nonzero;fill:rgb(93.333333%,93.333333%,93.333333%);fill-opacity:1;" d="M 25 32.1875 L 25 36.5625 L 16.769531 33.855469 L 16.355469 28.125 L 20.519531 28.125 L 20.730469 30.730469 Z M 19.894531 17.707031 L 25 17.707031 L 25 13.542969 L 15.519531 13.542969 L 16.25 26.042969 L 25 26.042969 L 25 21.875 L 20.207031 21.875 Z M 19.894531 17.707031 "/>
</g>
</svg>
